<svg xmlns="http://www.w3.org/2000/svg" width="31" height="31" viewBox="0 0 31 31"><defs><style>.a{fill:#ebebeb;}</style></defs><g transform="translate(-2021.363 -2099.868)"><path class="a" d="M2036.863,2099.868a15.5,15.5,0,1,0,15.5,15.5A15.518,15.518,0,0,0,2036.863,2099.868Zm0,26.989a11.489,11.489,0,1,1,11.489-11.489A11.5,11.5,0,0,1,2036.863,2126.857Z"/><path class="a" d="M2038.759,2112.981h-4.912v3h1.912v3.878H2033.2v3h8.078v-3h-2.522Z" transform="translate(0.044 0.052)"/><path class="a" d="M2036.791,2111.7a2.278,2.278,0,1,0-2.278-2.278A2.278,2.278,0,0,0,2036.791,2111.7Z" transform="translate(0.042 0.023)"/></g></svg>