<svg xmlns="http://www.w3.org/2000/svg" width="55.448" height="42.9" viewBox="0 0 55.448 42.9"><defs><style>.a{fill:#fff;}</style></defs><path class="a" d="M1736.877,1921.62h-6.05a11.441,11.441,0,0,0-11.059-8.594h-15.48a11.444,11.444,0,0,0-11.43,11.43v4.557a11.444,11.444,0,0,0,8.186,10.953v6.527l6.051-6.051h3.242a11.44,11.44,0,0,0,11.059,8.594h9.38l6.891,6.89V1949a11.435,11.435,0,0,0,10.639-11.389v-4.557A11.442,11.442,0,0,0,1736.877,1921.62Zm-39.3,7.393v-4.557a6.719,6.719,0,0,1,6.711-6.711h15.48a6.714,6.714,0,0,1,6.073,3.875H1721.4a11.443,11.443,0,0,0-11.43,11.429v2.674h-5.678A6.718,6.718,0,0,1,1697.577,1929.013Z" transform="translate(-1692.858 -1913.026)"/></svg>