<svg xmlns="http://www.w3.org/2000/svg" width="49.599" height="40.312" viewBox="0 0 49.599 40.312"><defs><style>.a{fill:#fff;}</style></defs><path class="a" d="M588.752,509.793c18.719,0,28.955-15.51,28.955-28.957,0-.44-.007-.879-.03-1.314a20.642,20.642,0,0,0,5.075-5.27,20.4,20.4,0,0,1-5.842,1.6,10.239,10.239,0,0,0,4.475-5.629,20.483,20.483,0,0,1-6.463,2.473,10.177,10.177,0,0,0-17.6,6.957,10.4,10.4,0,0,0,.261,2.325A28.915,28.915,0,0,1,576.6,471.344a10.181,10.181,0,0,0,3.153,13.584,10.1,10.1,0,0,1-4.611-1.275c0,.046,0,.087,0,.13a10.179,10.179,0,0,0,8.161,9.976,10.2,10.2,0,0,1-2.678.359,10.065,10.065,0,0,1-1.914-.188,10.189,10.189,0,0,0,9.5,7.072,20.407,20.407,0,0,1-12.639,4.356,20.624,20.624,0,0,1-2.426-.143,28.778,28.778,0,0,0,15.6,4.575" transform="translate(-573.153 -469.481)"/></svg>